<?xml version="1.0" encoding="utf-8"?>
<svg viewBox="0 0 500 500" xmlns="http://www.w3.org/2000/svg">
  <path id="Delphi" d="M 499.996 185.685 C 500.673 282.217 411.317 315.926 353.636 356.897 C 300.877 394.36 255.711 447.001 250.27 468.359 C 243.913 446.564 203.354 395.367 146.37 357.94 C 87.596 319.354 -0.667 283.269 0.004 186.738 C 1.214 10.975 185.692 -37.617 250.41 113.819 C 312.154 -31.581 498.776 9.49 499.996 185.685 Z M 211.574 374.131 C 224.398 374.131 239.97 375.963 257.374 379.627 L 266.533 363.139 L 256.458 341.155 C 245.466 339.323 235.39 338.407 227.146 338.407 C 204.247 338.407 200.583 345.735 200.583 345.735 L 186.843 377.795 C 191.423 375.963 199.667 374.131 211.574 374.131 Z M 206.994 345.735 C 218.902 342.071 231.014 341.448 237.222 343.903 C 229.894 341.155 210.658 347.567 210.658 347.567 L 196.919 366.803 Z M 175.495 317.519 L 140.152 325.868 C 142.016 330.859 143.5 334.57 144.604 337 C 145.709 339.43 147.471 342.862 149.892 347.297 L 182.731 329.764 Z M 169.712 299.497 L 132.081 291.637 C 132.591 296.206 133.055 299.638 133.472 301.934 C 133.89 304.23 134.725 307.941 135.977 313.066 L 173.547 312.76 C 172.578 310.076 171.836 308.045 171.321 306.665 C 170.806 305.286 170.27 302.897 169.712 299.497 Z M 167.703 271.54 L 132.916 249.893 C 132.014 256.899 131.457 262.094 131.246 265.477 C 131.035 268.86 131.035 273.684 131.246 279.949 L 168.26 292.75 C 167.792 288.175 167.514 284.743 167.425 282.453 C 167.336 280.164 167.428 276.526 167.703 271.54 Z M 173.547 247.666 L 145.161 209.539 C 142.577 215.412 140.722 219.957 139.595 223.176 C 138.468 226.394 137.077 231.126 135.421 237.369 L 168.538 266.59 C 169.442 261.919 170.184 258.486 170.764 256.293 C 171.345 254.1 172.273 251.225 173.547 247.666 Z M 190.245 221.506 L 177.444 164.455 C 170.974 171.095 166.243 176.29 163.25 180.04 C 160.257 183.789 156.547 189.17 152.118 196.181 L 175.495 243.213 C 178.402 237.882 180.628 234.079 182.175 231.803 C 183.721 229.528 186.411 226.095 190.245 221.506 Z M 222.249 199.521 L 234.495 128.833 C 222.951 133.828 214.324 137.909 208.613 141.078 C 202.902 144.247 196.316 148.607 188.854 154.158 L 194.141 217.332 C 200.474 212.197 205.298 208.579 208.613 206.478 C 211.928 204.377 216.474 202.058 222.249 199.521 Z M 261.211 193.398 L 299.616 122.154 C 288.313 121.306 279.5 121.12 273.178 121.597 C 266.856 122.074 258.414 123.28 247.853 125.215 L 228.65 196.738 C 236.473 194.908 242.317 193.795 246.183 193.398 C 250.049 193.002 255.058 193.002 261.211 193.398 Z M 299.509 205.589 L 368.913 147.201 C 360.935 141.82 352.771 137.367 344.422 133.842 C 336.073 130.317 327.446 127.441 318.541 125.215 L 270.384 194.923 C 274.525 195.545 279.81 197.003 286.24 199.297 Z M 312.333 375.963 C 311.417 372.299 304.089 340.239 275.693 320.088 C 274.777 319.172 261.038 308.18 254.626 299.936 L 244.55 301.768 L 288.517 397.03 C 294.013 395.198 311.417 386.954 312.333 375.963 Z M 335.232 274.288 L 326.072 217.497 L 229.894 284.364 L 232.642 294.44 Z M 239.138 298.104 L 229.978 299.936 L 226.314 282.532 L 316.081 221.161 C 299.593 205.59 277.609 195.513 256.542 195.513 C 209.826 195.513 171.355 233.985 171.355 280.7 C 171.355 304.516 181.431 327.415 198.835 342.987 C 200.667 340.239 206.163 333.827 229.062 333.827 C 237.306 333.827 246.466 334.743 257.458 336.575 Z M 196.003 326.499 C 150.203 247.725 227.146 210.169 237.222 206.505 C 228.062 210.169 155.699 254.137 202.415 323.751 C 199.667 325.583 196.003 327.415 196.003 326.499 Z" fill="#d40000"/>
</svg>